<?xml version="1.0" encoding="utf-8"?>
<!-- Generator: Adobe Illustrator 27.8.0, SVG Export Plug-In . SVG Version: 6.00 Build 0)  -->
<svg version="1.1"
	 id="svg8" xmlns:inkscape="http://www.inkscape.org/namespaces/inkscape" xmlns:svg="http://www.w3.org/2000/svg" xmlns:dc="http://purl.org/dc/elements/1.1/" xmlns:cc="http://creativecommons.org/ns#" xmlns:sodipodi="http://sodipodi.sourceforge.net/DTD/sodipodi-0.dtd" xmlns:rdf="http://www.w3.org/1999/02/22-rdf-syntax-ns#" inkscape:export-filename="/media/djl11/Drive/Ivy/ivy_logo.png" inkscape:export-ydpi="96"
	 xmlns="http://www.w3.org/2000/svg" xmlns:xlink="http://www.w3.org/1999/xlink" x="0px" y="0px" viewBox="0 0 847.2 359"
	 style="enable-background:new 0 0 847.2 359;" xml:space="preserve">
<style type="text/css">
	.st0{fill:#0B0B0D;}
	.st1{fill:#00B828;}
</style>
<g>
	<path class="st0" d="M394.1,65.5h41.5v38.7h-41.5V65.5z M394.1,124.7h41.7v154.1h-41.7V124.7z"/>
	<polygon class="st0" points="570.8,124.7 614,124.7 552.8,278.8 514.3,278.8 451.6,124.7 496.1,124.7 533.7,228 	"/>
	<path class="st0" d="M746.8,124.7h44.3l-67.2,152.1c-6.4,14.5-12.7,25.8-18.8,33.8c-6.1,8-13.2,14-21.2,18
		c-8.1,3.9-17.9,5.9-29.4,5.9h-17.2V297h14.5c9.9,0,16.9-1.8,21.1-5.4c4.2-3.6,8.8-11.4,13.6-23.3l0.6-1.3l-65.2-142.3h45.3
		l41.1,94.8L746.8,124.7z"/>
	<path class="st1" d="M210.2,56.5c-49.2,0-89.2,40-89.2,89.2c0,39.5,32.1,71.6,71.6,71.6c29.7,0,54-24.2,54-54
		c0-20-16.3-36.3-36.3-36.3c-15.2,0-27.5,12.3-27.5,27.5c0,10.3,8.4,18.7,18.7,18.7c1.7,0,3.3-0.2,4.9-0.6c-3,4.4-8,7.2-13.7,7.2
		c-18.8,0-34.1-15.3-34.1-34.1c0-28.5,23.2-51.7,51.7-51.7c38.2,0,69.4,31.1,69.4,69.4c0,48-39,87-87,87
		C134.9,250.3,88,203.4,88,145.7c0-7.1,0.6-14.1,1.8-21H51.9c-0.9,6.9-1.4,14-1.4,21c0,78.3,63.7,142,142,142
		c68.6,0,124.4-55.8,124.4-124.4C317,104.5,269.1,56.5,210.2,56.5"/>
</g>
</svg>
